HIERARCHY
ROOT Hips
{
	OFFSET 0.000000 0.000000 0.000000
	CHANNELS 6 Xposition Yposition Zposition Zrotation Yrotation Xrotation 
	JOINT LowerBack
	{
		OFFSET 0.000000 0.000000 0.000000
		CHANNELS 3 Zrotation Yrotation Xrotation
		JOINT Spine
		{
			OFFSET 0.028270 2.035590 -0.193380
			CHANNELS 3 Zrotation Yrotation Xrotation
			JOINT Spine1
			{
				OFFSET 0.056720 2.048850 -0.042750
				CHANNELS 3 Zrotation Yrotation Xrotation
				JOINT Neck
				{
					OFFSET 0.000000 0.000000 0.000000
					CHANNELS 3 Zrotation Yrotation Xrotation
					JOINT Neck1
					{
						OFFSET -0.054170 1.746240 0.172020
						CHANNELS 3 Zrotation Yrotation Xrotation
						JOINT Head
						{
							OFFSET 0.104070 1.761360 -0.123970
							CHANNELS 3 Zrotation Yrotation Xrotation
							End Site
							{
								OFFSET 0.000000 0.000000 0.000000
							}
						}
					}
				}
				JOINT LeftShoulder
				{
					OFFSET 0.000000 0.000000 0.000000
					CHANNELS 3 Zrotation Yrotation Xrotation
					JOINT LeftArm
					{
						OFFSET 3.362410 1.200890 -0.311210
						CHANNELS 3 Zrotation Yrotation Xrotation
						JOINT LeftForeArm
						{
							OFFSET 4.983000 -0.000000 -0.000000
							CHANNELS 3 Zrotation Yrotation Xrotation
							JOINT LeftHand
							{
								OFFSET 3.483560 -0.000000 -0.000000
								CHANNELS 3 Zrotation Yrotation Xrotation
								JOINT LeftFingerBase
								{
									OFFSET 0.000000 0.000000 0.000000
									CHANNELS 3 Zrotation Yrotation Xrotation
									JOINT LeftHandIndex1
									{
										OFFSET 0.715260 -0.000000 -0.000000
										CHANNELS 3 Zrotation Yrotation Xrotation
										End Site
										{
											OFFSET 0.000000 0.000000 0.000000
										}
									}
								}
								JOINT LThumb
								{
									OFFSET 0.000000 0.000000 0.000000
									CHANNELS 3 Zrotation Yrotation Xrotation
									End Site
									{
										OFFSET 0.000000 0.000000 0.000000
									}
								}
							}
						}
					}
				}
				JOINT RightShoulder
				{
					OFFSET 0.000000 0.000000 0.000000
					CHANNELS 3 Zrotation Yrotation Xrotation
					JOINT RightArm
					{
						OFFSET -3.136600 1.374050 -0.404650
						CHANNELS 3 Zrotation Yrotation Xrotation
						JOINT RightForeArm
						{
							OFFSET -5.241900 -0.000000 -0.000000
							CHANNELS 3 Zrotation Yrotation Xrotation
							JOINT RightHand
							{
								OFFSET -3.444170 -0.000000 -0.000000
								CHANNELS 3 Zrotation Yrotation Xrotation
								JOINT RightFingerBase
								{
									OFFSET 0.000000 0.000000 0.000000
									CHANNELS 3 Zrotation Yrotation Xrotation
									JOINT RightHandIndex1
									{
										OFFSET -0.622530 -0.000000 -0.000000
										CHANNELS 3 Zrotation Yrotation Xrotation
										End Site
										{
											OFFSET 0.000000 0.000000 0.000000
										}
									}
								}
								JOINT RThumb
								{
									OFFSET 0.000000 0.000000 0.000000
									CHANNELS 3 Zrotation Yrotation Xrotation
									End Site
									{
										OFFSET 0.000000 0.000000 0.000000
									}
								}
							}
						}
					}
				}
			}
		}
	}
}
}
MOTION
Frames: 11
Frame Time: 0.008333
-1.363920 17.121683 1.357714 -26.586880 -72.762425 27.770342 9.232403 -4.646270 6.114251 0.812425 -4.817514 -2.222147 -7.664964 -4.809536 -1.267146 10.802651 -7.424931 -5.050943 -4.403841 -0.349539 0.576172 0.000000 0.000000 0.000000 -3.965615 -5.158243 2.163160 -70.579372 -6.182322 16.057443 -2.641692 -28.095153 -0.002908 5.389657 -4.896299 -0.237543 -0.063233 0.100565 0.000000 0.000000 0.000000 0.000000 0.000000 0.000000 0.000000 19.112843 -7.913420 1.580124 74.023652 -8.315288 -7.729521 3.952469 13.696388 0.013259 1.455793 9.721936 0.118645 0.070329 -0.035819 0.000000 0.000000 0.000000 0.000000 0.000000 0.000000 0.000000 
-1.364398 17.112471 1.353431 -25.619414 -72.595622 26.897482 8.854192 -4.652434 5.821294 0.748446 -4.832094 -2.252466 -7.680769 -4.822844 -1.211555 10.948357 -7.686310 -5.047451 -4.401491 -0.350378 0.584868 0.000000 0.000000 0.000000 -3.786450 -5.262252 2.107142 -70.697135 -5.879934 16.598740 -2.666349 -27.906897 -0.002066 4.954645 -4.682130 -0.208938 -0.062985 0.096702 0.000000 0.000000 0.000000 0.000000 0.000000 0.000000 0.000000 19.297434 -8.193840 1.516994 73.913820 -8.082555 -8.021779 3.911620 14.097588 0.013403 1.318304 9.878002 0.108656 0.070172 -0.038066 0.000000 0.000000 0.000000 0.000000 0.000000 0.000000 0.000000 
-1.364069 17.103602 1.352928 -25.005348 -72.529934 26.388665 8.573731 -4.617384 5.527320 0.701419 -4.810875 -2.280004 -7.692310 -4.801666 -1.153529 11.046939 -7.903824 -5.063535 -4.395224 -0.350754 0.588257 0.000000 0.000000 0.000000 -3.736123 -5.258775 2.059220 -70.757811 -5.654655 17.192408 -2.689963 -27.736070 -0.001253 4.478052 -4.453620 -0.179732 -0.062514 0.092978 0.000000 0.000000 0.000000 0.000000 0.000000 0.000000 0.000000 19.411288 -8.390366 1.462609 73.795779 -7.836455 -8.376737 3.878751 14.457402 0.013651 1.157081 10.049279 0.096266 0.070592 -0.040704 0.000000 0.000000 0.000000 0.000000 0.000000 0.000000 0.000000 
-1.362812 17.095088 1.356244 -24.766388 -72.546900 26.144472 8.402461 -4.557159 5.340020 0.672223 -4.763195 -2.287386 -7.697770 -4.755050 -1.105092 11.094337 -8.069207 -5.089878 -4.384906 -0.350571 0.587838 0.000000 0.000000 0.000000 -3.806717 -5.182155 2.024777 -70.772540 -5.473408 17.769525 -2.709994 -27.595905 -0.000523 3.984752 -4.224938 -0.151927 -0.061643 0.089527 0.000000 0.000000 0.000000 0.000000 0.000000 0.000000 0.000000 19.445203 -8.502336 1.420683 73.667251 -7.576846 -8.718731 3.852388 14.767254 0.013976 0.961011 10.240748 0.080479 0.071476 -0.043552 -0.000000 0.000000 0.000000 0.000000 0.000000 0.000000 0.000000 
-1.360510 17.086370 1.361729 -24.711791 -72.649485 25.973478 8.284065 -4.487060 5.280627 0.646802 -4.696909 -2.287120 -7.695460 -4.690356 -1.074798 11.096766 -8.164103 -5.121451 -4.370329 -0.349625 0.583386 0.000000 0.000000 0.000000 -3.956364 -5.024903 2.010424 -70.760289 -5.338386 18.315916 -2.729054 -27.463830 0.000112 3.512594 -4.014439 -0.127424 -0.060625 0.086398 0.000000 0.000000 0.000000 0.000000 0.000000 0.000000 0.000000 19.402907 -8.525462 1.389959 73.544339 -7.325356 -9.053044 3.829215 15.033310 0.014320 0.747107 10.445132 0.062392 0.072532 -0.046390 -0.000000 0.000000 0.000000 0.000000 0.000000 0.000000 0.000000 
-1.357880 17.077253 1.367251 -24.729492 -72.826829 25.794626 8.176584 -4.417090 5.332031 0.616198 -4.619316 -2.290438 -7.686381 -4.614486 -1.066206 11.067861 -8.187530 -5.153665 -4.352183 -0.347944 0.575417 0.000000 0.000000 0.000000 -4.135158 -4.802653 2.015978 -70.740286 -5.220642 18.790125 -2.747619 -27.334897 0.000643 3.095911 -3.836828 -0.107422 -0.059625 0.083485 0.000000 0.000000 0.000000 0.000000 0.000000 0.000000 0.000000 19.301079 -8.470510 1.368904 73.435406 -7.092603 -9.344489 3.806969 15.253737 0.014648 0.519616 10.659134 0.042204 0.073599 -0.049013 -0.000000 0.000000 0.000000 0.000000 0.000000 0.000000 0.000000 
-1.355242 17.068836 1.373509 -25.116789 -73.040211 25.767695 8.150504 -4.348217 5.578496 0.599833 -4.535377 -2.253864 -7.672343 -4.532024 -1.075606 11.009466 -8.137355 -5.177518 -4.331960 -0.345886 0.567169 0.000000 0.000000 0.000000 -4.351886 -4.534896 2.033163 -70.716594 -5.112719 19.158957 -2.761009 -27.205430 0.001039 2.766319 -3.701980 -0.092722 -0.058629 0.080916 0.000000 0.000000 0.000000 0.000000 0.000000 0.000000 0.000000 19.145862 -8.323372 1.357080 73.324882 -6.874307 -9.565885 3.788650 15.426885 0.014959 0.284838 10.875188 0.020515 0.074679 -0.051386 -0.000000 0.000000 0.000000 0.000000 0.000000 0.000000 0.000000 
-1.353128 17.062610 1.381658 -25.967199 -73.343320 26.121093 8.218066 -4.256123 5.901214 0.600119 -4.429006 -2.199837 -7.655057 -4.427479 -1.095364 10.920857 -8.013514 -5.194947 -4.311150 -0.343721 0.559502 0.000000 0.000000 0.000000 -4.624595 -4.203077 2.054396 -70.689987 -5.003270 19.404668 -2.765973 -27.071743 0.001293 2.548458 -3.615941 -0.083525 -0.057597 0.078545 0.000000 0.000000 0.000000 0.000000 0.000000 0.000000 0.000000 18.944024 -8.077715 1.352458 73.188620 -6.668381 -9.704480 3.778733 15.553672 0.015291 0.053661 11.082764 -0.001674 0.075964 -0.053540 -0.000000 0.000000 0.000000 0.000000 0.000000 0.000000 0.000000 
-1.352305 17.059566 1.391885 -27.216843 -73.764536 26.897453 8.348052 -4.131071 6.209499 0.611741 -4.294428 -2.147107 -7.634055 -4.295468 -1.118144 10.806553 -7.826171 -5.208785 -4.290352 -0.341590 0.552721 0.000000 0.000000 0.000000 -4.952019 -3.797569 2.073209 -70.665531 -4.884461 19.524472 -2.761709 -26.924745 0.001405 2.457817 -3.581940 -0.079732 -0.056541 0.076241 0.000000 0.000000 0.000000 0.000000 0.000000 0.000000 0.000000 18.707613 -7.745561 1.351350 73.012314 -6.472008 -9.751910 3.778825 15.636089 0.015664 -0.163125 11.270666 -0.023362 0.077541 -0.055467 -0.000000 0.000000 0.000000 0.000000 0.000000 0.000000 0.000000 
-1.353073 17.060036 1.403755 -28.771435 -74.299140 28.048602 8.502135 -3.974810 6.464365 0.628175 -4.133997 -2.104628 -7.608310 -4.138469 -1.141684 10.673169 -7.590187 -5.217934 -4.269592 -0.339569 0.547701 0.000000 0.000000 0.000000 -5.316760 -3.338848 2.085508 -70.653097 -4.735125 19.504189 -2.748084 -26.762830 0.001381 2.495573 -3.596805 -0.081240 -0.055385 0.073875 0.000000 0.000000 0.000000 0.000000 0.000000 0.000000 0.000000 18.447273 -7.348439 1.352087 72.794540 -6.281538 -9.712846 3.788469 15.676031 0.016072 -0.353347 11.429002 -0.043050 0.079384 -0.057159 -0.000000 0.000000 0.000000 0.000000 0.000000 0.000000 0.000000 
-1.356294 17.064011 1.416284 -30.515654 -74.911026 29.480210 8.644870 -3.797863 6.642324 0.644016 -3.958071 -2.076447 -7.577143 -3.966554 -1.161139 10.530720 -7.327193 -5.223345 -4.248624 -0.337684 0.544668 0.000000 0.000000 0.000000 -5.691708 -2.841955 2.087600 -70.662507 -4.546128 19.354667 -2.726666 -26.576974 0.001248 2.651614 -3.654245 -0.087453 -0.054140 0.071338 0.000000 0.000000 0.000000 0.000000 0.000000 0.000000 0.000000 18.177067 -6.917693 1.350827 72.539867 -6.096465 -9.595900 3.806387 15.679173 0.016504 -0.504872 11.548131 -0.059038 0.081422 -0.058554 -0.000000 0.000000 0.000000 0.000000 0.000000 0.000000 0.000000 
